<!--?xml version="1.0" encoding="UTF-8" standalone="no"?-->
<svg viewport-fill="#ddd6c9" xmlns:dc="http://purl.org/dc/elements/1.1/" xmlns:cc="http://creativecommons.org/ns#" xmlns:rdf="http://www.w3.org/1999/02/22-rdf-syntax-ns#" xmlns:svg="http://www.w3.org/2000/svg" xmlns="http://www.w3.org/2000/svg" id="svg119716" viewBox="0 0 1024 768" height="768px" width="1024px" version="1.1">
  <defs id="defs119720"></defs>
  <style><![CDATA[  #title path, #title polygon{ fill: #609595 !important; } #tagline path, #tagline polygon{ fill: #609595 !important; }  #letter *{ fill: #609595 !important; }  #logo-group > rect { fill-opacity: 0; } ]]> </style><g id="logo-group">
  <!-- <rect x="0" y="0" width="1024" height="768" style="fill: #ddd6c9" /> -->
    <g id="title" style="font-style:normal;font-weight:bold;font-size:120px;font-family:'Montserrat Light Alt1';font-variant-ligatures:none;text-align:center;text-anchor:middle" aria-label="RIONI GROUP">
      <path id="path119727" style="font-style: normal; font-weight:bold; font-size: 120px; font-family: &quot;Montserrat Light Alt1&quot;; font-variant-ligatures: none; text-align: center; text-anchor: middle; fill: rgb(96, 149, 149);" d="m 293.17231,102.36 c 3.744,-1.08 6.696,-2.952 8.712,-5.688 2.016,-2.736 3.096,-6.048 3.096,-10.08 0,-5.256 -1.8,-9.432 -5.4,-12.456 -3.6,-3.024 -8.568,-4.536 -14.904,-4.536 h -18.072 v 3.312 h 18.072 c 5.328,0 9.432,1.224 12.312,3.6 2.808,2.376 4.248,5.76 4.248,10.08 0,4.392 -1.44,7.776 -4.248,10.152 -2.88,2.376 -6.984,3.528 -12.312,3.528 h -18.072 V 120 h 3.672 v -16.488 h 14.4 c 1.44,0 3.096,-0.072 4.896,-0.36 l 12.024,16.848 h 4.176 z" transform="translate(0 355.14652476229946) translate(191.5925207324246 66.15837422514723) scale(1.2269881354187822) translate(-266.60431 -69.6)"></path>
      <path id="path119729" style="font-style: normal; font-weight:bold; font-size: 120px; font-family: &quot;Montserrat Light Alt1&quot;; font-variant-ligatures: none; text-align: center; text-anchor: middle; fill: rgb(96, 149, 149);" d="M 318.49494,69.6 V 120 h 3.672 V 69.6 Z" transform="translate(0 355.14652476229946) translate(258.9426724880868 66.15837422514723) scale(1.2269881354187822) translate(-318.49494 -69.6)"></path>
      <path id="path119731" style="font-style: normal; font-weight:bold; font-size: 120px; font-family: &quot;Montserrat Light Alt1&quot;; font-variant-ligatures: none; text-align: center; text-anchor: middle; fill: rgb(96, 149, 149);" d="m 347.72131,117.048 c 3.96,2.232 8.424,3.312 13.392,3.312 4.896,0 9.36,-1.08 13.392,-3.312 3.96,-2.16 7.056,-5.256 9.36,-9.144 2.304,-3.888 3.456,-8.208 3.456,-13.104 0,-4.824 -1.152,-9.216 -3.456,-13.104 -2.304,-3.888 -5.4,-6.912 -9.36,-9.144 -4.032,-2.16 -8.496,-3.312 -13.392,-3.312 -4.968,0 -9.432,1.152 -13.392,3.384 -4.032,2.232 -7.128,5.256 -9.432,9.144 -2.304,3.888 -3.384,8.28 -3.384,13.032 0,4.824 1.08,9.144 3.384,13.032 2.304,3.888 5.4,6.984 9.432,9.216 z m 24.84,-2.952 c -3.456,1.944 -7.272,2.88 -11.448,2.88 -4.248,0 -8.064,-0.936 -11.52,-2.88 -3.456,-1.872 -6.12,-4.536 -8.064,-7.92 -2.016,-3.384 -2.952,-7.2 -2.952,-11.376 0,-4.176 0.936,-7.92 2.952,-11.304 1.944,-3.384 4.608,-6.048 8.064,-7.992 3.456,-1.872 7.272,-2.88 11.52,-2.88 4.176,0 7.992,1.008 11.448,2.88 3.384,1.944 6.048,4.608 8.064,7.992 1.944,3.384 2.952,7.128 2.952,11.304 0,4.176 -1.008,7.992 -2.952,11.376 -2.016,3.384 -4.68,6.048 -8.064,7.92 z" transform="translate(0 355.14652476229946) translate(282.75896618217547 65.71665849639648) scale(1.2269881354187822) translate(-334.90531 -69.24)"></path>
      <path id="path119733" style="font-style: normal; font-weight:bold; font-size: 120px; font-family: &quot;Montserrat Light Alt1&quot;; font-variant-ligatures: none; text-align: center; text-anchor: middle; fill: rgb(96, 149, 149);" d="m 441.09744,69.6 h -3.672 v 43.776 L 403.15344,69.6 h -3.096 V 120 h 3.672 V 76.224 l 34.344,43.776 h 3.024 z" transform="translate(0 355.14652476229946) translate(366.38082109569393 66.15837422514723) scale(1.2269881354187822) translate(-400.05744 -69.6)"></path>
      <path id="path119735" style="font-style: normal; font-weight:bold; font-size: 120px; font-family: &quot;Montserrat Light Alt1&quot;; font-variant-ligatures: none; text-align: center; text-anchor: middle; fill: rgb(96, 149, 149);" d="M 458.69806,69.6 V 120 h 3.672 V 69.6 Z" transform="translate(0 355.14652476229946) translate(442.01313049555165 66.15837422514723) scale(1.2269881354187822) translate(-458.69806 -69.6)"></path>
      <path id="path119737" style="font-style: normal; font-weight:bold; font-size: 120px; font-family: &quot;Montserrat Light Alt1&quot;; font-variant-ligatures: none; text-align: center; text-anchor: middle; fill: rgb(96, 149, 149);" d="m 534.49494,95.016 v 17.352 c -3.816,3.096 -8.568,4.608 -14.328,4.608 -4.32,0 -8.208,-0.936 -11.664,-2.88 -3.456,-1.944 -6.192,-4.608 -8.208,-7.992 -2.016,-3.384 -2.952,-7.128 -2.952,-11.304 0,-4.176 0.936,-7.92 2.952,-11.304 1.944,-3.384 4.68,-6.048 8.136,-7.992 3.456,-1.872 7.416,-2.88 11.736,-2.88 3.168,0 6.048,0.504 8.64,1.44 2.592,0.936 4.968,2.448 7.128,4.536 l 2.304,-2.448 c -2.232,-2.232 -4.896,-3.96 -7.992,-5.112 -3.096,-1.152 -6.48,-1.8 -10.152,-1.8 -5.04,0 -9.576,1.152 -13.608,3.312 -4.032,2.232 -7.128,5.256 -9.432,9.144 -2.304,3.888 -3.384,8.28 -3.384,13.104 0,4.896 1.08,9.216 3.384,13.104 2.304,3.888 5.4,6.984 9.432,9.144 4.032,2.232 8.496,3.312 13.536,3.312 3.456,0 6.768,-0.504 9.936,-1.656 3.168,-1.08 5.832,-2.664 8.064,-4.824 V 95.016 Z" transform="translate(0 355.14652476229946) translate(488.60540372323277 65.71665849639648) scale(1.2269881354187822) translate(-493.67094 -69.24)"></path>
      <path id="path119739" style="font-style: normal; font-weight:bold; font-size: 120px; font-family: &quot;Montserrat Light Alt1&quot;; font-variant-ligatures: none; text-align: center; text-anchor: middle; fill: rgb(96, 149, 149);" d="m 580.75044,102.36 c 3.744,-1.08 6.696,-2.952 8.712,-5.688 2.016,-2.736 3.096,-6.048 3.096,-10.08 0,-5.256 -1.8,-9.432 -5.4,-12.456 -3.6,-3.024 -8.568,-4.536 -14.904,-4.536 h -18.072 v 3.312 h 18.072 c 5.328,0 9.432,1.224 12.312,3.6 2.808,2.376 4.248,5.76 4.248,10.08 0,4.392 -1.44,7.776 -4.248,10.152 -2.88,2.376 -6.984,3.528 -12.312,3.528 h -18.072 V 120 h 3.672 v -16.488 h 14.4 c 1.44,0 3.096,-0.072 4.896,-0.36 l 12.024,16.848 h 4.176 z" transform="translate(0 355.14652476229946) translate(566.533260685883 66.15837422514723) scale(1.2269881354187822) translate(-554.18244 -69.6)"></path>
      <path id="path119741" style="font-style: normal; font-weight:bold; font-size: 120px; font-family: &quot;Montserrat Light Alt1&quot;; font-variant-ligatures: none; text-align: center; text-anchor: middle; fill: rgb(96, 149, 149);" d="m 614.06506,117.048 c 3.96,2.232 8.424,3.312 13.392,3.312 4.896,0 9.36,-1.08 13.392,-3.312 3.96,-2.16 7.056,-5.256 9.36,-9.144 2.304,-3.888 3.456,-8.208 3.456,-13.104 0,-4.824 -1.152,-9.216 -3.456,-13.104 -2.304,-3.888 -5.4,-6.912 -9.36,-9.144 -4.032,-2.16 -8.496,-3.312 -13.392,-3.312 -4.968,0 -9.432,1.152 -13.392,3.384 -4.032,2.232 -7.128,5.256 -9.432,9.144 -2.304,3.888 -3.384,8.28 -3.384,13.032 0,4.824 1.08,9.144 3.384,13.032 2.304,3.888 5.4,6.984 9.432,9.216 z m 24.84,-2.952 c -3.456,1.944 -7.272,2.88 -11.448,2.88 -4.248,0 -8.064,-0.936 -11.52,-2.88 -3.456,-1.872 -6.12,-4.536 -8.064,-7.92 -2.016,-3.384 -2.952,-7.2 -2.952,-11.376 0,-4.176 0.936,-7.92 2.952,-11.304 1.944,-3.384 4.608,-6.048 8.064,-7.992 3.456,-1.872 7.272,-2.88 11.52,-2.88 4.176,0 7.992,1.008 11.448,2.88 3.384,1.944 6.048,4.608 8.064,7.992 1.944,3.384 2.952,7.128 2.952,11.304 0,4.176 -1.008,7.992 -2.952,11.376 -2.016,3.384 -4.68,6.048 -8.064,7.92 z" transform="translate(0 355.14652476229946) translate(627.9644094064037 65.71665849639648) scale(1.2269881354187822) translate(-601.24906 -69.24)"></path>
      <path id="path119743" style="font-style: normal; font-weight:bold; font-size: 120px; font-family: &quot;Montserrat Light Alt1&quot;; font-variant-ligatures: none; text-align: center; text-anchor: middle; fill: rgb(96, 149, 149);" d="m 671.22519,114.816 c 3.528,3.744 8.496,5.544 14.904,5.544 6.336,0 11.304,-1.8 14.904,-5.544 3.528,-3.672 5.328,-9.072 5.328,-16.2 V 69.6 h -3.672 v 28.872 c 0,6.192 -1.44,10.872 -4.248,13.896 -2.88,3.096 -6.912,4.608 -12.24,4.608 -5.4,0 -9.504,-1.512 -12.312,-4.608 -2.88,-3.024 -4.248,-7.704 -4.248,-13.896 V 69.6 h -3.672 v 29.016 c 0,7.128 1.728,12.528 5.256,16.2 z" transform="translate(0 355.14652476229946) translate(711.0562054454211 66.15837422514723) scale(1.2269881354187822) translate(-665.96919 -69.6)"></path>
      <path id="path119745" style="font-style: normal; font-weight:bold; font-size: 120px; font-family: &quot;Montserrat Light Alt1&quot;; font-variant-ligatures: none; text-align: center; text-anchor: middle; fill: rgb(96, 149, 149);" d="m 756.47094,74.136 c -3.6,-3.024 -8.568,-4.536 -14.904,-4.536 h -18.072 v 3.312 h 18.072 c 5.328,0 9.432,1.224 12.312,3.6 2.808,2.376 4.248,5.76 4.248,10.08 0,4.392 -1.44,7.776 -4.248,10.08 -2.88,2.376 -6.984,3.528 -12.312,3.528 h -18.072 V 120 h 3.672 v -16.488 h 14.4 c 6.336,0 11.304,-1.44 14.904,-4.464 3.6,-3.024 5.4,-7.128 5.4,-12.456 0,-5.256 -1.8,-9.432 -5.4,-12.456 z" transform="translate(0 355.14652476229946) translate(785.3205825827445 66.15837422514723) scale(1.2269881354187822) translate(-723.49494 -69.6)"></path>
    </g>
    <g id="tagline" style="font-style:oblique;font-weight:bold;font-size:32px;font-family:Lato;font-variant-ligatures:none;text-align:center;text-anchor:middle"></g>
  </g>
</svg>
